<svg width="26" height="20" viewBox="0 0 26 20" fill="none" xmlns="http://www.w3.org/2000/svg">
<g id="Group">
<path id="Shape" fill-rule="evenodd" clip-rule="evenodd" d="M5.8421 1.62676e-05H20.1579C21.5735 -0.00347906 22.9323 0.556419 23.9345 1.55617C24.9368 2.55592 25.5 3.91336 25.5 5.32896V14.4079C25.5 15.8235 24.9368 17.181 23.9345 18.1807C22.9323 19.1805 21.5735 19.7404 20.1579 19.7369H5.8421C4.4265 19.7404 3.06768 19.1805 2.06546 18.1807C1.06324 17.181 0.499996 15.8235 0.5 14.4079V5.32896C0.499996 3.91336 1.06324 2.55592 2.06546 1.55617C3.06768 0.556419 4.4265 -0.00347906 5.8421 1.62676e-05ZM20.1579 17.7632C21.9878 17.7637 23.4834 16.3031 23.5263 14.4737V5.32897C23.5191 3.47378 22.0131 1.97369 20.1579 1.9737H5.8421C3.9869 1.97369 2.48093 3.47378 2.47368 5.32897V14.4079C2.48093 16.2631 3.9869 17.7632 5.8421 17.7632H20.1579Z" fill="#0B1C3F"/>
<path id="Shape_2" fill-rule="evenodd" clip-rule="evenodd" d="M7.64478 10.2369C7.64478 7.33009 10.0012 4.97369 12.9079 4.97369C15.8147 4.97369 18.1711 7.33009 18.1711 10.2369C18.1711 13.1436 15.8147 15.5 12.9079 15.5C10.0012 15.5 7.64478 13.1436 7.64478 10.2369ZM9.61846 10.2369C9.61846 12.0536 11.0912 13.5263 12.9079 13.5263C14.7247 13.5263 16.1974 12.0536 16.1974 10.2369C16.1974 8.42013 14.7247 6.94738 12.9079 6.94738C11.0912 6.94738 9.61846 8.42013 9.61846 10.2369Z" fill="#0B1C3F"/>
<rect id="Rectangle" x="18.171" y="3.64478" width="2.63158" height="2.64474" rx="0.5" fill="#0B1C3F"/>
</g>
</svg>
