<svg width="30" height="30" viewBox="0 0 30 30" fill="none" xmlns="http://www.w3.org/2000/svg">
<g id="Interface essential/Flame">
<path id="Shape" fill-rule="evenodd" clip-rule="evenodd" d="M18.2003 17.95H18.2753C20.7312 16.8659 22.6899 14.8983 23.7628 12.4375V17.8875C23.7728 21.3807 21.7041 24.5452 18.5003 25.9375H18.4128C17.3535 26.3861 16.2131 26.6116 15.0628 26.6C13.9509 26.603 12.8498 26.382 11.8253 25.95L11.5003 25.8125C8.30343 24.4751 6.23002 21.3403 6.25027 17.875V17.65C6.27425 15.8754 6.99745 14.182 8.26277 12.9375L8.48777 12.725C10.4768 10.7769 12.1172 8.50233 13.3378 6L15.0503 2.5C15.0503 2.5 16.8253 5 18.4753 7.5C20.4875 10.4857 19.8183 14.5232 16.9503 16.7H16.8878H16.8003C16.5025 17.0747 16.5349 17.6136 16.8753 17.95C17.0177 18.0702 17.2021 18.1287 17.3878 18.1125C17.6654 18.1009 17.9395 18.046 18.2003 17.95ZM17.6503 24.2H17.7378V24.1875C20.2371 23.0921 21.8581 20.6288 21.8753 17.9C21.0323 18.6419 20.0683 19.2338 19.0253 19.65L18.8628 19.7125C18.3922 19.8957 17.8927 19.9931 17.3878 20C16.7036 20.0241 16.0394 19.7666 15.5503 19.2875C14.5291 18.2782 14.4321 16.6617 15.3253 15.5375C15.4343 15.4012 15.5604 15.2794 15.7003 15.175H15.7878C17.8955 13.6027 18.3914 10.6495 16.9128 8.475C16.3753 7.675 15.8378 6.875 15.3378 6.1625L15.0253 6.8125C13.7023 9.47898 11.9354 11.901 9.80028 13.975L9.57528 14.1875C8.66738 15.0835 8.14682 16.2996 8.12528 17.575V17.8125C8.09141 20.5364 9.7132 23.0087 12.2253 24.0625L12.5503 24.2C14.1799 24.8919 16.0207 24.8919 17.6503 24.2Z" fill="#0B1C3F"/>
</g>
</svg>
