<svg width="83" height="24" viewBox="0 0 83 24" fill="none" xmlns="http://www.w3.org/2000/svg">
<path d="M4.78516 14.6523V17.6055L7.66797 17.4414L7.44531 15.3555L4.78516 14.6523ZM7.25781 11.125L7.48047 8.99219L4.87891 8.875L4.86719 11.0664L7.25781 11.125ZM7.09375 4.72656L11.9336 6.64844L11.6523 11.0078L10.5391 12.7422L11.8281 15.0859L12.1094 20.1719L7.26953 22.4102L0.566406 21.4375L0.402344 5.25391L7.09375 4.72656ZM17.1758 19.5508L16.5078 22L11.8789 21.9531L16.9062 5.04297L22.7188 5.18359L26.457 22.082L21.582 22.0469L21.1367 19.7969L17.1758 19.5508ZM20.1992 15.1094L19.4258 11.2422L18.3945 15.0391L20.1992 15.1094ZM37.1016 6.87109L36.4688 10.8555L31.5586 9.70703L37.1016 17.9336L34.5117 23.125L26.2617 22L26.0977 17.418L31.3125 18.2969L25.9102 9.53125L29.3438 4.83203L37.1016 6.87109ZM37.6914 5.95703L49.668 4.90234L49.5273 10.2344H45.8711L46.4336 22.1406L41.4531 22.2109L41.3828 10.4219L37.9727 10.0234L37.6914 5.95703ZM54.793 5.19531L55.2383 22.1406L50.375 22.2109L50.3047 5.38281L54.793 5.19531ZM60.3398 10.1055L60.668 16.9727L61.8984 17.8516L63.5039 17.2305L63.5391 10.6797L61.8984 9.50781L60.3398 10.1055ZM55.9219 19.6328L55.8516 7.84375L61.7227 4.66797L68.543 7.66797L67.9805 19.5742L62.0742 22.6914L55.9219 19.6328ZM73.7852 14.6992L74.0195 21.9062L69.0391 21.9766L68.9688 5.5L73.457 5.3125L76.7617 12.6367L76.7969 5.25391L81.7773 5.32422L81.2148 21.918L76.7266 21.7305L73.7852 14.6992Z" fill="#04050F"/>
<circle cx="52.25" cy="2.25" r="2.25" fill="#F6851B"/>
</svg>
