<svg width="25" height="26" viewBox="0 0 25 26" fill="none" xmlns="http://www.w3.org/2000/svg">
<g id="Group">
<path id="Shape" fill-rule="evenodd" clip-rule="evenodd" d="M22.0331 8.91347C22.2711 9.49364 22.8354 9.87318 23.4625 9.875C24.3137 9.88186 25 10.5738 25 11.425V14.1C25 14.956 24.306 15.65 23.45 15.65C22.8229 15.6518 22.2586 16.0314 22.0206 16.6115C21.7825 17.1917 21.9174 17.8582 22.3625 18.3C22.9595 18.9118 22.9595 19.8882 22.3625 20.5L20.4875 22.375C19.8757 22.972 18.8993 22.972 18.2875 22.375C18.0053 22.076 17.6111 21.9084 17.2 21.9125C16.7868 21.9092 16.3893 22.071 16.0959 22.362C15.8025 22.6531 15.6375 23.0492 15.6375 23.4625C15.6375 24.3185 14.9435 25.0125 14.0875 25.0125H11.4125C10.5565 25.0125 9.8625 24.3185 9.8625 23.4625C9.86251 23.0492 9.69749 22.6531 9.4041 22.362C9.11071 22.071 8.71325 21.9092 8.3 21.9125C7.88888 21.9084 7.4947 22.076 7.2125 22.375C6.60069 22.972 5.62431 22.972 5.0125 22.375L3.1375 20.5C2.54046 19.8882 2.54046 18.9118 3.1375 18.3C3.58256 17.8582 3.71753 17.1917 3.47944 16.6115C3.24135 16.0314 2.67712 15.6518 2.05 15.65C1.63891 15.65 1.24467 15.4867 0.953984 15.196C0.663303 14.9053 0.5 14.5111 0.5 14.1V11.425C0.5 10.569 1.19396 9.875 2.05 9.875C2.67712 9.87318 3.24135 9.49364 3.47944 8.91347C3.71753 8.3333 3.58256 7.66682 3.1375 7.225C2.54046 6.61319 2.54046 5.63681 3.1375 5.025L5.0125 3.15C5.62431 2.55296 6.60069 2.55296 7.2125 3.15C7.4947 3.44899 7.88888 3.61663 8.3 3.6125C8.71542 3.61586 9.11481 3.45232 9.40857 3.15857C9.70232 2.86481 9.86586 2.46542 9.8625 2.05C9.8625 1.19396 10.5565 0.5 11.4125 0.5H14.1C14.956 0.5 15.65 1.19396 15.65 2.05C15.6466 2.46542 15.8102 2.86481 16.1039 3.15857C16.3977 3.45232 16.7971 3.61586 17.2125 3.6125C17.6236 3.61663 18.0178 3.44899 18.3 3.15C18.9118 2.55296 19.8882 2.55296 20.5 3.15L22.375 5.025C22.972 5.63681 22.972 6.61319 22.375 7.225C21.9299 7.66682 21.795 8.3333 22.0331 8.91347ZM20.25 15.8875C20.7379 14.6978 21.8553 13.8852 23.1375 13.7875L23.1 11.7375C21.8318 11.6263 20.7319 10.8159 20.25 9.6375C19.778 8.45635 19.9941 7.11127 20.8125 6.1375L19.375 4.7C18.7654 5.21051 17.9951 5.4894 17.2 5.4875C15.4286 5.48316 13.9483 4.13794 13.775 2.375H11.725C11.5573 4.14075 10.0737 5.489 8.3 5.4875C7.50487 5.4894 6.7346 5.21051 6.125 4.7L4.725 6.1375C5.53066 7.1187 5.73232 8.4631 5.25 9.6375C4.76809 10.8159 3.66824 11.6263 2.4 11.7375V13.7875C3.66824 13.8987 4.76809 14.7091 5.25 15.8875C5.72205 17.0687 5.50587 18.4137 4.6875 19.3875L6.125 20.825C6.7346 20.3145 7.50487 20.0356 8.3 20.0375C10.0714 20.0418 11.5517 21.3871 11.725 23.15H13.775C13.9313 21.3786 15.4217 20.0241 17.2 20.0375C17.9951 20.0356 18.7654 20.3145 19.375 20.825L20.775 19.3875C19.9693 18.4063 19.7677 17.0619 20.25 15.8875Z" fill="#0B1C3F"/>
<path id="Shape_2" fill-rule="evenodd" clip-rule="evenodd" d="M8.42505 12.7625C8.42505 10.3739 10.3614 8.4375 12.75 8.4375C13.8971 8.4375 14.9972 8.89317 15.8083 9.70426C16.6194 10.5154 17.075 11.6154 17.075 12.7625C17.075 15.1511 15.1387 17.0875 12.75 17.0875C10.3614 17.0875 8.42505 15.1511 8.42505 12.7625ZM10.25 12.7625C10.25 14.1432 11.3693 15.2625 12.7501 15.2625C14.1308 15.2625 15.2501 14.1432 15.2501 12.7625C15.2501 11.3818 14.1308 10.2625 12.7501 10.2625C11.3693 10.2625 10.25 11.3818 10.25 12.7625Z" fill="#0B1C3F"/>
</g>
</svg>
